<svg width="55" height="56" viewBox="0 0 55 56" fill="none" xmlns="http://www.w3.org/2000/svg">
<path fill-rule="evenodd" clip-rule="evenodd" d="M15.6239 10.1334C13.1418 10.5465 14.8125 12.2232 16.8649 12.5148C18.5833 12.7578 21.8767 12.7578 28.9648 12.7335C37.6041 12.7092 41.3033 12.8064 41.8522 13.0494C43.2125 13.6812 43.8093 16.1112 44.1911 22.6964C44.3343 25.0291 44.6206 28.5283 44.8354 30.4722C45.5037 36.7172 44.8833 37.3247 37.0314 37.6406C34.0004 37.7621 30.0626 38.0051 28.2965 38.1752C20.0391 38.9771 14.9079 38.8312 12.044 37.6649C9.65744 36.6929 9.77682 35.9153 9.70522 34.2872C9.53816 31.1283 9.60974 24.6889 9.91996 18.8327C10.1825 13.9242 10.4928 12.9522 12.044 12.2232C12.9986 11.7858 12.6646 11.2755 11.4713 11.3241C9.68133 11.4213 8.29714 12.0288 8.03462 14.8719C7.7005 18.371 5.57639 37.592 9.39489 39.2201C11.9008 40.2893 16.2682 41.3341 17.9865 41.3341C19.1798 41.3341 19.1322 42.6949 17.9389 43.0594C15.1944 43.8613 17.1274 45.8053 20.755 45.9511C28.1056 46.194 38.8452 45.5866 38.9407 44.8819C39.0362 44.1772 37.4849 42.5734 36.6734 42.5734C36.4109 42.5734 36.2437 42.2575 36.2437 41.7958C36.2437 41.1397 36.2438 40.2163 36.9836 40.2163C40.1578 40.2163 41.8522 40.0705 42.8068 39.8518C47.4606 38.8312 47.6516 35.6237 47.6039 33.7527C47.4368 26.0983 46.0287 18.7841 46.0287 17.0589C46.0049 14.07 44.2866 11.1297 40.6112 10.5951C39.1794 10.1577 18.0821 9.72033 15.6239 10.1334ZM28.0818 25.0048C27.7954 24.6889 25.027 21.5543 24.2633 20.7524C23.3086 19.7561 22.3301 20.072 20.2776 21.9916C19.2275 22.9879 17.5809 24.4702 16.6024 25.3207C13.2135 28.2367 12.9509 29.5488 15.7432 29.5488C16.6978 29.5488 17.1513 29.2086 19.9913 26.2441C23.6666 22.4047 23.3325 22.429 26.5306 25.588C28.6784 27.702 28.4159 27.7264 31.9003 24.9562C34.9073 22.1132 36.6257 20.2178 38.7974 18.0065C40.9454 15.8196 37.6518 14.8233 35.9097 16.3298C33.8572 18.0551 28.1056 24.9805 28.0818 25.0048ZM35.8143 23.8627C35.3847 24.9805 35.5995 32.4405 36.0768 32.9022C37.2462 34.0929 37.9622 31.5414 37.8906 26.4871C37.8429 23.6926 36.5064 22.016 35.8143 23.8627ZM21.996 26.9002C21.2563 28.8928 21.8767 34.3359 23.3802 34.0686C24.8837 33.8013 23.8576 27.7992 23.5234 26.9245C23.3086 26.2927 22.2347 26.2684 21.996 26.9002ZM31.7093 27.459C31.3036 27.9693 30.8979 31.7358 31.1605 32.7564C31.6139 34.5788 33.4992 33.777 33.4992 31.7601C33.4992 28.3825 32.6401 26.317 31.7093 27.459ZM18.1298 30.0591C17.7718 30.4236 17.9149 33.1452 18.3445 33.7283C19.1082 34.7975 19.7765 34.1172 19.7765 32.2461C19.7526 30.3021 18.9411 29.2087 18.1298 30.0591ZM26.3634 30.0591C25.7429 30.6909 26.1725 33.2909 26.9362 33.6554C28.1533 34.2143 28.5591 32.6835 27.8192 30.2535C27.6999 29.8161 26.7214 29.6946 26.3634 30.0591ZM32.5208 40.6295C33.4755 40.8968 33.1175 41.7715 33.213 42.5734L22.1869 42.7678C22.1869 42.6949 22.378 40.7752 22.378 40.8967C23.1416 40.8724 30.1342 40.5809 31.0889 40.508C31.4707 40.4594 32.139 40.5323 32.5208 40.6295Z" fill="#006B99"/>
</svg>
