<svg width="876" height="440" viewBox="0 0 876 440" fill="none" xmlns="http://www.w3.org/2000/svg">
<g clip-path="url(#clip0_2_564)">
<g opacity="0.05">
<path fill-rule="evenodd" clip-rule="evenodd" d="M729.329 148.039L582.672 99.0444V0L876 2.56436e-05V99.0444L729.329 148.039ZM874.001 97.6002V2.00374L584.671 2.00372V97.6002L729.329 145.926L874.001 97.6002Z" fill="#191919"/>
<path fill-rule="evenodd" clip-rule="evenodd" d="M583.671 294.02L437 245.025V145.981H730.329V245.025L583.671 294.02ZM583.671 291.907L728.329 243.581V147.985H439V243.581L583.671 291.907Z" fill="#191919"/>
<path fill-rule="evenodd" clip-rule="evenodd" d="M437 147.984V0L584.671 1.29098e-05V147.984H437ZM439 145.981H582.672V2.00373L439 2.00371V145.981Z" fill="#191919"/>
<path fill-rule="evenodd" clip-rule="evenodd" d="M582.658 147.984V0L730.329 1.29098e-05V147.984H582.658ZM584.658 145.981H728.329V2.00373L584.658 2.00371V145.981Z" fill="#191919"/>
<path fill-rule="evenodd" clip-rule="evenodd" d="M438 148.039L291.329 99.0444V0L584.671 2.56448e-05V99.0444L438 148.039ZM582.671 97.6002V2.00374L293.328 2.00372V97.6002L438 145.926L582.671 97.6002Z" fill="#191919"/>
<path fill-rule="evenodd" clip-rule="evenodd" d="M438 440L291.329 391.006V291.961H584.671V391.006L438 440ZM582.671 389.562V293.965H293.328V389.562L438 437.888L582.671 389.562Z" fill="#191919"/>
<path fill-rule="evenodd" clip-rule="evenodd" d="M291.329 293.965V145.98H439V293.965H291.329ZM293.328 291.961H437V147.984H293.328V291.961Z" fill="#191919"/>
<path fill-rule="evenodd" clip-rule="evenodd" d="M436.987 293.965V145.981H584.658V293.965H436.987ZM438.986 291.961H582.658V147.984H438.986V291.961Z" fill="#191919"/>
<path fill-rule="evenodd" clip-rule="evenodd" d="M292.329 294.02L145.658 245.025V145.981H439V245.025L292.329 294.02ZM437 243.581V147.985H147.657V243.581L292.329 291.907L437 243.581Z" fill="#191919"/>
<path fill-rule="evenodd" clip-rule="evenodd" d="M145.658 147.984V0L293.329 1.29098e-05V147.984H145.658ZM147.657 145.981H291.329V2.00373L147.657 2.00371V145.981Z" fill="#191919"/>
<path fill-rule="evenodd" clip-rule="evenodd" d="M291.329 147.984V-0.000244141L439 -0.000231232V147.984H291.329ZM293.328 145.981H437V2.00349L293.328 2.00347V145.981Z" fill="#191919"/>
<path fill-rule="evenodd" clip-rule="evenodd" d="M146.657 148.039L9.15527e-05 99.0444L0.000100212 0L293.329 2.56436e-05L293.328 99.0444L146.657 148.039ZM291.329 97.6002V2.00374L1.99957 2.00372L1.99956 97.6002L146.658 145.926L291.329 97.6002Z" fill="#191919"/>
</g>
</g>
<defs>
<clipPath id="clip0_2_564">
<rect width="876" height="440" fill="white"/>
</clipPath>
</defs>
</svg>
