<svg width="219" height="67" viewBox="0 0 219 67" fill="none" xmlns="http://www.w3.org/2000/svg">
<g filter="url(#filter0_d_59_801)">
<path fill-rule="evenodd" clip-rule="evenodd" d="M8.46822 3.21296C4.3092 4.14679 3.89778 6.91757 7.19599 11.7802C7.57277 12.3357 7.96911 12.8717 8.07676 12.9712C8.37682 13.2486 9.70953 14.2944 11.0127 15.2753C12.1876 16.1596 16.1895 18.3619 16.6436 18.3742C16.7761 18.3778 17.3249 18.612 17.8632 18.8946C18.4014 19.1773 18.9606 19.4094 19.1058 19.4104C19.2511 19.4115 19.6474 19.542 19.9866 19.7008C20.3258 19.8594 21.2023 20.1892 21.9341 20.4339C25.4282 21.6013 24.8127 23.8216 21.2283 22.9801C20.777 22.874 19.6149 22.6312 18.6461 22.4403C17.6772 22.2493 16.7084 22.0097 16.4931 21.9075C14.0623 20.7537 9.15327 19.443 9.15327 19.9478C9.15327 20.7009 11.6545 24.6487 12.7999 25.7032C14.1422 26.9392 17.7064 29.2311 18.2861 29.2311C18.4245 29.2311 18.9144 29.4085 19.3748 29.6253C20.7584 30.2769 22.1275 30.6956 22.8705 30.6945C25.3174 30.691 26.6104 31.5306 25.9113 32.6696C25.5173 33.3113 21.0774 33.4701 19.2199 32.9088C16.9002 32.2077 15.6651 32.3075 16.1691 33.1553C16.3684 33.4902 20.7231 36.5378 21.0069 36.5409C21.1212 36.5419 21.6057 36.749 22.0834 37.0005C23.964 37.9912 31.0832 38.4625 34.3043 37.8096C38.0507 37.0502 38.2825 36.9951 38.6823 36.7667C38.8976 36.6437 39.2981 36.543 39.5719 36.543C42.1375 36.543 47.2374 33.5483 50.2146 30.2934C52.7769 27.4921 52.8742 27.0242 51.2387 25.3663C50.8985 25.0216 50.4747 24.4105 50.2966 24.0083C49.8698 23.0438 44.4894 17.3065 42.6227 15.8253C40.7572 14.345 37.5003 11.9951 36.5787 11.4643C36.189 11.2397 35.3417 10.7277 34.6958 10.3262C34.0498 9.92442 33.037 9.35493 32.4449 9.06058C31.8528 8.76601 31.1922 8.43572 30.9769 8.32667C30.2713 7.96881 27.2849 6.85573 25.9859 6.46653C25.2861 6.25679 24.4934 5.99001 24.2243 5.87364C23.9552 5.75728 23.2506 5.52205 22.6585 5.35074C19.8551 4.54017 19.1906 4.34275 18.6322 4.15494C18.3016 4.0438 17.7894 3.95292 17.4938 3.95292C17.1985 3.95292 16.7643 3.84032 16.5291 3.70285C15.4447 3.06818 10.4613 2.76547 8.46822 3.21296ZM58.3307 27.5101C57.3268 28.511 55.9191 32.1068 55.1387 35.6633C54.7132 37.6024 54.6189 37.8251 54.1742 37.9387C51.2083 38.6964 50.2749 41.6532 52.5906 42.9545C53.0672 43.2223 53.4872 43.4734 53.5238 43.5125C53.5604 43.5517 53.449 44.2792 53.276 45.1294C52.1555 50.6394 52.4737 52.6291 54.4756 52.6291C55.6631 52.6291 56.216 51.8735 56.4912 49.8746C57.1573 45.0392 57.7153 42.8136 58.1623 43.2097C58.3299 43.3583 58.4712 43.3593 58.6084 43.2129C58.7188 43.0951 59.4084 43.0267 60.1415 43.0612L61.4743 43.1237L61.9951 45.3172C63.3296 50.9365 64.2152 52.838 65.499 52.838C66.5058 52.838 66.8382 51.7935 66.5027 49.6837C66.3857 48.9483 66.203 47.7824 66.0966 47.093C65.9901 46.4036 65.7609 45.2019 65.5871 44.4225C65.2804 43.0474 65.2827 42.9916 65.6662 42.5423C66.9779 41.0043 66.68 39.1583 64.9885 38.3442C64.0878 37.9107 63.976 37.4898 63.9344 34.3724C63.9218 33.4407 63.8694 32.8662 63.8175 33.096C63.5047 34.4838 63.2802 33.8859 63.0086 30.9423C62.8275 28.9806 62.3805 27.9776 61.687 27.9776C61.5525 27.9776 61.1809 27.7426 60.861 27.4554C60.0576 26.7338 59.0883 26.7547 58.3307 27.5101ZM142.987 27.2974C141.976 27.9668 141.056 30.1326 139.823 34.7497L138.991 37.8658L138.118 38.1376C135.408 38.9808 134.941 43.2281 137.558 43.2281C138.048 43.2281 138.046 43.6409 137.548 45.944C137.337 46.9206 137.106 48.5359 137.035 49.5335L136.907 51.3472L137.507 51.9882C139.041 53.625 140.479 52.59 140.973 49.4955C141.864 43.9033 142.125 42.859 142.542 43.2281C142.721 43.3867 142.84 43.3898 142.927 43.2384C143.082 42.9712 145.704 42.9436 145.857 43.2077C145.917 43.3111 146.27 44.6819 146.641 46.2538C147.917 51.6616 149.587 54.1481 150.751 52.3736C151.23 51.6443 150.873 48.2487 149.872 44.0038C149.651 43.0698 149.664 43.0104 150.252 42.2494C151.322 40.8639 150.864 38.9281 149.311 38.2774C148.516 37.9439 148.316 37.2107 148.316 34.6321C148.316 34.0559 148.232 33.8271 148.022 33.8271C147.861 33.8271 147.729 33.7369 147.729 33.6264C147.729 30.8218 147.095 28.3311 146.315 28.0679C146.07 27.9852 145.597 27.696 145.264 27.4253C144.554 26.8487 143.734 26.8027 142.987 27.2974ZM98.5387 27.2782C98.4653 27.3566 98.4052 28.1805 98.405 29.1093C98.4046 33.7054 97.6579 38.5684 96.2915 42.8726C95.6111 45.0162 95.4714 44.8415 94.9038 41.139C94.6662 39.5879 94.3479 37.7077 94.197 36.9608C92.7843 29.9759 92.4644 29.0544 91.1333 28.1343C88.8519 26.5575 88.1206 28.7888 89.1948 34.0486C90.1396 38.6749 90.9356 43.9301 91.0795 46.4899C91.1846 48.3609 91.2867 48.894 91.6549 49.4955C91.9013 49.8976 92.1658 50.4617 92.2427 50.7489C93.5854 55.7603 100.704 47.357 102.596 38.5276C104.08 31.6012 103.495 27.7213 100.923 27.4401L99.6408 27.2999L99.505 30.5489C99.311 35.1936 98.788 38.3283 97.5815 42.0791C96.9519 44.0368 96.0584 45.8207 95.8298 45.5767C95.6982 45.4363 95.7607 45.1 96.019 44.5587C97.9658 40.4801 100.14 25.5691 98.5387 27.2782ZM167.203 27.6868C165.373 27.8417 162.189 27.9939 160.128 28.0253C158.066 28.0564 156.481 28.1513 156.605 28.2357C156.729 28.3201 157.287 28.3905 157.846 28.3923C158.405 28.394 158.925 28.5047 159.003 28.6384C159.109 28.8212 158.415 28.8478 156.199 28.7454C151.579 28.5319 150.942 29.6019 153.752 32.8605C154.412 33.6264 155.388 33.8917 158.004 34.0179L160.549 34.1405L160.522 34.8717C160.212 43.343 160.216 49.5347 160.533 50.4199C161.358 52.726 163.482 52.7507 163.885 50.4589C164.058 49.4723 164.362 49.49 164.379 50.4878C164.39 51.1162 164.426 51.1885 164.561 50.8534C164.654 50.6236 164.736 46.6516 164.743 42.0269C164.751 37.4022 164.813 33.6182 164.882 33.6182C165.394 33.6182 170.058 32.7153 170.5 32.5307C170.847 32.3857 171.168 32.0157 171.354 31.5479C171.517 31.1355 171.833 30.4073 172.055 29.9299C172.444 29.0951 172.446 29.0404 172.116 28.5029C171.928 28.1955 171.821 27.8105 171.88 27.6474C172.008 27.2922 171.849 27.2937 167.203 27.6868ZM69.9268 28.0583C69.6036 28.2085 69.2186 28.4868 69.0708 28.6769C68.9233 28.8668 68.6907 29.0222 68.5543 29.0222C68.4181 29.0222 68.1096 29.1925 67.8689 29.4003L67.4312 29.7787L67.7777 31.4894C67.9863 32.5204 68.2212 33.2004 68.3684 33.2004C68.6935 33.2004 68.7647 33.4177 69.6371 37.0653C70.0493 38.7888 70.6574 41.3214 70.9886 42.6931C71.695 45.6206 71.6586 45.3172 71.3037 45.3172C70.9021 45.3172 70.7451 44.8936 70.2207 42.3925C69.9679 41.186 69.6913 40.1131 69.6062 40.008C69.4136 39.77 69.5776 41.0367 69.9636 42.7658C70.3174 44.3512 70.2268 44.7622 69.5813 44.5002C66.4138 43.2148 66.2173 47.4318 69.3715 49.0049C70.9445 49.7896 71.2671 50.0363 71.5008 50.6334C72.0989 52.1611 73.7969 52.6592 75.1591 51.7064C75.5665 51.4214 75.7144 51.4222 76.5868 51.7143C86.8165 55.1373 90.6966 47.454 83.4138 38.1957C77.3554 30.494 72.5137 26.8548 69.9268 28.0583ZM110.665 28.2837C109.809 28.6094 108.881 29.4728 108.458 30.3369C108.301 30.6578 107.976 31.0004 107.735 31.0981C105.074 32.178 103.898 43.8929 105.977 48.6122C108.417 54.15 114.827 53.2266 116.817 47.0502C118.306 42.4334 116.956 30.5057 114.853 29.6943C114.688 29.6306 114.236 29.2182 113.849 28.778C113.055 27.8755 112.12 27.7301 110.665 28.2837ZM120.374 28.1937C119.575 28.5363 119.473 29.1559 119.713 32.1937C120.289 39.4991 120.549 42.3795 120.724 43.4232C120.828 44.0475 120.914 46.1525 120.914 48.1006C120.914 52.5662 120.973 52.6375 124.046 51.8952C126.354 51.3376 129.978 50.9449 132.445 50.985C135.502 51.0347 136.05 50.6213 135.312 48.8236C135.157 48.4463 134.984 47.9015 134.928 47.6132C134.687 46.3693 131.19 45.9281 127.373 46.6599C125.459 47.0268 125.624 47.5027 125.194 40.3752C124.987 36.9462 124.697 33.2944 124.551 32.2603L124.284 30.3801L124.263 31.8026C124.24 33.3197 123.951 33.5434 123.748 32.2008C123.613 31.3117 123.271 29.5023 123.139 28.9867C122.98 28.3633 121.181 27.8475 120.374 28.1937ZM175.925 28.3382C172.798 29.6539 172.261 46.0545 175.311 47.0875C175.537 47.1642 176.066 47.768 176.487 48.429C180.496 54.7308 187.071 52.6262 189.021 44.4166C190.263 39.1897 189.88 29.9163 188.374 28.7289L187.819 28.291L187.388 28.8655C187.123 29.219 186.767 29.44 186.463 29.44C185.202 29.44 185.114 29.8029 185.103 35.0365C185.08 45.6601 184.036 48.4664 180.916 46.2845C180.278 45.8383 179.133 41.6024 178.849 38.6321L178.678 36.8564L178.741 39.2325C178.776 40.5545 178.732 41.4837 178.641 41.327C177.917 40.0765 177.864 32.7953 178.575 32.1816C180.381 30.621 178.159 27.3981 175.925 28.3382ZM193.323 28.5584C192.391 29.0548 192.148 29.9032 192.208 32.4506C192.243 33.9592 192.19 34.5452 192.012 34.6095C191.829 34.6755 191.762 34.2084 191.748 32.7477C191.726 30.5692 191.534 29.4918 191.281 30.1288C191.038 30.7388 191.331 46.2026 191.633 48.6995C191.965 51.4477 192.219 51.9238 193.462 52.1227C195.132 52.3899 195.164 52.2641 195.046 45.8828C194.934 39.8438 195.038 39.4615 195.88 42.8176C198.208 52.0972 198.189 52.0446 199.255 51.9621L200.086 51.8979L200.5 50.4356C201.207 47.9372 201.829 44.833 201.797 43.9593C201.766 43.1327 202.78 38.3463 203.455 36.1252C203.791 35.0198 204.196 34.7344 204.196 35.6029C204.196 35.8327 204.283 36.1617 204.39 36.3341C204.496 36.5064 204.77 37.5875 204.998 38.7365C205.226 39.8856 205.552 41.5307 205.722 42.3925C206.2 44.8102 206.643 48.2729 206.643 49.5882C206.643 51.1091 206.837 51.4711 207.992 52.0953C210.3 53.3438 211.514 50.7493 210.675 46.3618C209.731 41.4252 209.328 39.2175 208.885 36.5566C208.196 32.4089 207.55 30.4714 206.399 29.0945C205.401 27.901 202.458 28.6215 202.247 30.1108C201.319 36.6639 199.041 45.9346 198.725 44.4442C197.887 40.4975 196.466 32.0345 196.465 30.986C196.465 30.4094 195.614 28.826 195.157 28.5496C194.632 28.2329 193.927 28.2363 193.323 28.5584ZM120.999 29.2017C120.92 29.5052 120.874 31.8686 120.895 34.4539C120.955 41.6003 120.592 40.1204 119.992 30.7768C119.89 29.1833 119.91 29.0648 120.333 28.7487C120.909 28.3175 121.18 28.5014 120.999 29.2017ZM195.649 31.268C195.746 31.4692 195.932 32.2917 196.063 33.096C196.194 33.9003 196.47 35.4264 196.676 36.4872C197.23 39.3315 196.858 39.84 196.214 37.1177C194.959 31.8089 194.722 29.3485 195.649 31.268ZM112.05 31.7903C112.958 33.0517 113.715 37.477 113.74 41.6613C113.776 47.7283 112.28 50.5745 109.78 49.1944C108.415 48.4411 107.893 46.9058 109.085 47.149C109.654 47.2649 109.653 47.2764 109.271 44.795C108.744 41.3761 108.997 36.9978 109.862 34.5583C110.757 32.0328 111.526 31.0608 112.05 31.7903ZM155.715 32.6618C157.133 32.9865 157.359 33.1319 156.706 33.2978C156.111 33.4488 154.34 32.9675 154.235 32.6259C154.137 32.308 154.173 32.309 155.715 32.6618ZM60.2104 34.6106C60.7651 38.4589 60.7747 38.414 59.4003 38.42C58.3951 38.4242 58.3606 38.1996 58.9779 35.6752C59.7327 32.59 59.8984 32.4467 60.2104 34.6106ZM144.808 36.074C145.043 38.3212 145.002 38.4146 143.777 38.42C142.794 38.4244 142.785 38.3764 143.354 35.9002C144.152 32.4289 144.431 32.4623 144.808 36.074ZM110.556 34.1579C110.565 34.4012 110.612 34.4507 110.674 34.2842C110.731 34.1334 110.723 33.9531 110.659 33.8838C110.594 33.8144 110.547 33.9377 110.556 34.1579ZM75.5968 35.7871C79.8644 38.9701 85.4165 46.3559 84.5932 47.7548C83.8481 49.021 79.0851 48.9028 76.0344 47.5421C75.2051 47.1724 75.2662 47.3719 74.534 42.6392C74.2081 40.5344 73.7689 37.9099 73.5579 36.8066C73.0566 34.1879 73.2937 34.0693 75.5968 35.7871ZM69.046 38.2143C69.046 38.3674 69.1047 38.4301 69.1765 38.3536C69.2482 38.2769 69.2482 38.1516 69.1765 38.0749C69.1047 37.9985 69.046 38.0611 69.046 38.2143ZM57.8347 44.9165C57.655 45.654 57.4661 46.5864 57.4149 46.9885C57.1538 49.039 57.1097 49.9133 57.2677 49.9133C57.3638 49.9133 57.499 49.3348 57.5681 48.6276C57.6374 47.9205 57.8339 46.6056 58.0048 45.7058C58.3925 43.6631 58.2739 43.1128 57.8347 44.9165ZM142.198 45.2778C141.918 46.6188 141.509 50.6743 141.752 49.7044C141.93 48.9924 142.67 43.8181 142.604 43.7477C142.565 43.7057 142.382 44.3941 142.198 45.2778ZM128.254 52.2984L125.905 52.5378L129.872 52.5418C132.559 52.5447 133.817 52.4751 133.771 52.3264C133.676 52.0226 131.088 52.0095 128.254 52.2984ZM124.633 52.7336C124.633 52.791 124.677 52.838 124.731 52.838C124.784 52.838 124.828 52.791 124.828 52.7336C124.828 52.6761 124.784 52.6291 124.731 52.6291C124.677 52.6291 124.633 52.6761 124.633 52.7336Z" fill="white"/>
</g>
<g filter="url(#filter1_f_59_801)">
<path fill-rule="evenodd" clip-rule="evenodd" d="M6.46822 3.21296C2.3092 4.14679 1.89778 6.91757 5.19599 11.7802C5.57277 12.3357 5.96911 12.8717 6.07676 12.9712C6.37682 13.2486 7.70953 14.2944 9.01268 15.2753C10.1876 16.1596 14.1895 18.3619 14.6436 18.3742C14.7761 18.3778 15.3249 18.612 15.8632 18.8946C16.4014 19.1773 16.9606 19.4094 17.1058 19.4104C17.2511 19.4115 17.6474 19.542 17.9866 19.7008C18.3258 19.8594 19.2023 20.1892 19.9341 20.4339C23.4282 21.6013 22.8127 23.8216 19.2283 22.9801C18.777 22.874 17.6149 22.6312 16.6461 22.4403C15.6772 22.2493 14.7084 22.0097 14.4931 21.9075C12.0623 20.7537 7.15327 19.443 7.15327 19.9478C7.15327 20.7009 9.65447 24.6487 10.7999 25.7032C12.1422 26.9392 15.7064 29.2311 16.2861 29.2311C16.4245 29.2311 16.9144 29.4085 17.3748 29.6253C18.7584 30.2769 20.1275 30.6956 20.8705 30.6945C23.3174 30.691 24.6104 31.5306 23.9113 32.6696C23.5173 33.3113 19.0774 33.4701 17.2199 32.9088C14.9002 32.2077 13.6651 32.3075 14.1691 33.1553C14.3684 33.4902 18.7231 36.5378 19.0069 36.5409C19.1212 36.5419 19.6057 36.749 20.0834 37.0005C21.964 37.9912 29.0832 38.4625 32.3043 37.8096C36.0507 37.0502 36.2825 36.9951 36.6823 36.7667C36.8976 36.6437 37.2981 36.543 37.5719 36.543C40.1375 36.543 45.2374 33.5483 48.2146 30.2934C50.7769 27.4921 50.8742 27.0242 49.2387 25.3663C48.8985 25.0216 48.4747 24.4105 48.2966 24.0083C47.8698 23.0438 42.4894 17.3065 40.6227 15.8253C38.7572 14.345 35.5003 11.9951 34.5787 11.4643C34.189 11.2397 33.3417 10.7277 32.6958 10.3262C32.0498 9.92442 31.037 9.35493 30.4449 9.06058C29.8528 8.76601 29.1922 8.43572 28.9769 8.32667C28.2713 7.96881 25.2849 6.85573 23.9859 6.46653C23.2861 6.25679 22.4934 5.99001 22.2243 5.87364C21.9552 5.75728 21.2506 5.52205 20.6585 5.35074C17.8551 4.54017 17.1906 4.34275 16.6322 4.15494C16.3016 4.0438 15.7894 3.95292 15.4938 3.95292C15.1985 3.95292 14.7643 3.84032 14.5291 3.70285C13.4447 3.06818 8.46132 2.76547 6.46822 3.21296ZM56.3307 27.5101C55.3268 28.511 53.9191 32.1068 53.1387 35.6633C52.7132 37.6024 52.6189 37.8251 52.1742 37.9387C49.2083 38.6964 48.2749 41.6532 50.5906 42.9545C51.0672 43.2223 51.4872 43.4734 51.5238 43.5125C51.5604 43.5517 51.449 44.2792 51.276 45.1294C50.1555 50.6394 50.4737 52.6291 52.4756 52.6291C53.6631 52.6291 54.216 51.8735 54.4912 49.8746C55.1573 45.0392 55.7153 42.8136 56.1623 43.2097C56.3299 43.3583 56.4712 43.3593 56.6084 43.2129C56.7188 43.0951 57.4084 43.0267 58.1415 43.0612L59.4743 43.1237L59.9951 45.3172C61.3296 50.9365 62.2152 52.838 63.499 52.838C64.5058 52.838 64.8382 51.7935 64.5027 49.6837C64.3857 48.9483 64.203 47.7824 64.0966 47.093C63.9901 46.4036 63.7609 45.2019 63.5871 44.4225C63.2804 43.0474 63.2827 42.9916 63.6662 42.5423C64.9779 41.0043 64.68 39.1583 62.9885 38.3442C62.0878 37.9107 61.976 37.4898 61.9344 34.3724C61.9218 33.4407 61.8694 32.8662 61.8175 33.096C61.5047 34.4838 61.2802 33.8859 61.0086 30.9423C60.8275 28.9806 60.3805 27.9776 59.687 27.9776C59.5525 27.9776 59.1809 27.7426 58.861 27.4554C58.0576 26.7338 57.0883 26.7547 56.3307 27.5101ZM140.987 27.2974C139.976 27.9668 139.056 30.1326 137.823 34.7497L136.991 37.8658L136.118 38.1376C133.408 38.9808 132.941 43.2281 135.558 43.2281C136.048 43.2281 136.046 43.6409 135.548 45.944C135.337 46.9206 135.106 48.5359 135.035 49.5335L134.907 51.3472L135.507 51.9882C137.041 53.625 138.479 52.59 138.973 49.4955C139.864 43.9033 140.125 42.859 140.542 43.2281C140.721 43.3867 140.84 43.3898 140.927 43.2384C141.082 42.9712 143.704 42.9436 143.857 43.2077C143.917 43.3111 144.27 44.6819 144.641 46.2538C145.917 51.6616 147.587 54.1481 148.751 52.3736C149.23 51.6443 148.873 48.2487 147.872 44.0038C147.651 43.0698 147.664 43.0104 148.252 42.2494C149.322 40.8639 148.864 38.9281 147.311 38.2774C146.516 37.9439 146.316 37.2107 146.316 34.6321C146.316 34.0559 146.232 33.8271 146.022 33.8271C145.861 33.8271 145.729 33.7369 145.729 33.6264C145.729 30.8218 145.095 28.3311 144.315 28.0679C144.07 27.9852 143.597 27.696 143.264 27.4253C142.554 26.8487 141.734 26.8027 140.987 27.2974ZM96.5387 27.2782C96.4653 27.3566 96.4052 28.1805 96.405 29.1093C96.4046 33.7054 95.6579 38.5684 94.2915 42.8726C93.6111 45.0162 93.4714 44.8415 92.9038 41.139C92.6662 39.5879 92.3479 37.7077 92.197 36.9608C90.7843 29.9759 90.4644 29.0544 89.1333 28.1343C86.8519 26.5575 86.1206 28.7888 87.1948 34.0486C88.1396 38.6749 88.9356 43.9301 89.0795 46.4899C89.1846 48.3609 89.2867 48.894 89.6549 49.4955C89.9013 49.8976 90.1658 50.4617 90.2427 50.7489C91.5854 55.7603 98.7042 47.357 100.596 38.5276C102.08 31.6012 101.495 27.7213 98.9228 27.4401L97.6408 27.2999L97.505 30.5489C97.311 35.1936 96.788 38.3283 95.5815 42.0791C94.9519 44.0368 94.0584 45.8207 93.8298 45.5767C93.6982 45.4363 93.7607 45.1 94.019 44.5587C95.9658 40.4801 98.1397 25.5691 96.5387 27.2782ZM165.203 27.6868C163.373 27.8417 160.189 27.9939 158.128 28.0253C156.066 28.0564 154.481 28.1513 154.605 28.2357C154.729 28.3201 155.287 28.3905 155.846 28.3923C156.405 28.394 156.925 28.5047 157.003 28.6384C157.109 28.8212 156.415 28.8478 154.199 28.7454C149.579 28.5319 148.942 29.6019 151.752 32.8605C152.412 33.6264 153.388 33.8917 156.004 34.0179L158.549 34.1405L158.522 34.8717C158.212 43.343 158.216 49.5347 158.533 50.4199C159.358 52.726 161.482 52.7507 161.885 50.4589C162.058 49.4723 162.362 49.49 162.379 50.4878C162.39 51.1162 162.426 51.1885 162.561 50.8534C162.654 50.6236 162.736 46.6516 162.743 42.0269C162.751 37.4022 162.813 33.6182 162.882 33.6182C163.394 33.6182 168.058 32.7153 168.5 32.5307C168.847 32.3857 169.168 32.0157 169.354 31.5479C169.517 31.1355 169.833 30.4073 170.055 29.9299C170.444 29.0951 170.446 29.0404 170.116 28.5029C169.928 28.1955 169.821 27.8105 169.88 27.6474C170.008 27.2922 169.849 27.2937 165.203 27.6868ZM67.9268 28.0583C67.6036 28.2085 67.2186 28.4868 67.0708 28.6769C66.9233 28.8668 66.6907 29.0222 66.5543 29.0222C66.4181 29.0222 66.1096 29.1925 65.8689 29.4003L65.4312 29.7787L65.7777 31.4894C65.9863 32.5204 66.2212 33.2004 66.3684 33.2004C66.6935 33.2004 66.7647 33.4177 67.6371 37.0653C68.0493 38.7888 68.6574 41.3214 68.9886 42.6931C69.695 45.6206 69.6586 45.3172 69.3037 45.3172C68.9021 45.3172 68.7451 44.8936 68.2207 42.3925C67.9679 41.186 67.6913 40.1131 67.6062 40.008C67.4136 39.77 67.5776 41.0367 67.9636 42.7658C68.3174 44.3512 68.2268 44.7622 67.5813 44.5002C64.4138 43.2148 64.2173 47.4318 67.3715 49.0049C68.9445 49.7896 69.2671 50.0363 69.5008 50.6334C70.0989 52.1611 71.7969 52.6592 73.1591 51.7064C73.5665 51.4214 73.7144 51.4222 74.5868 51.7143C84.8165 55.1373 88.6966 47.454 81.4138 38.1957C75.3554 30.494 70.5137 26.8548 67.9268 28.0583ZM108.665 28.2837C107.809 28.6094 106.881 29.4728 106.458 30.3369C106.301 30.6578 105.976 31.0004 105.735 31.0981C103.074 32.178 101.898 43.8929 103.977 48.6122C106.417 54.15 112.827 53.2266 114.817 47.0502C116.306 42.4334 114.956 30.5057 112.853 29.6943C112.688 29.6306 112.236 29.2182 111.849 28.778C111.055 27.8755 110.12 27.7301 108.665 28.2837ZM118.374 28.1937C117.575 28.5363 117.473 29.1559 117.713 32.1937C118.289 39.4991 118.549 42.3795 118.724 43.4232C118.828 44.0475 118.914 46.1525 118.914 48.1006C118.914 52.5662 118.973 52.6375 122.046 51.8952C124.354 51.3376 127.978 50.9449 130.445 50.985C133.502 51.0347 134.05 50.6213 133.312 48.8236C133.157 48.4463 132.984 47.9015 132.928 47.6132C132.687 46.3693 129.19 45.9281 125.373 46.6599C123.459 47.0268 123.624 47.5027 123.194 40.3752C122.987 36.9462 122.697 33.2944 122.551 32.2603L122.284 30.3801L122.263 31.8026C122.24 33.3197 121.951 33.5434 121.748 32.2008C121.613 31.3117 121.271 29.5023 121.139 28.9867C120.98 28.3633 119.181 27.8475 118.374 28.1937ZM173.925 28.3382C170.798 29.6539 170.261 46.0545 173.311 47.0875C173.537 47.1642 174.066 47.768 174.487 48.429C178.496 54.7308 185.071 52.6262 187.021 44.4166C188.263 39.1897 187.88 29.9163 186.374 28.7289L185.819 28.291L185.388 28.8655C185.123 29.219 184.767 29.44 184.463 29.44C183.202 29.44 183.114 29.8029 183.103 35.0365C183.08 45.6601 182.036 48.4664 178.916 46.2845C178.278 45.8383 177.133 41.6024 176.849 38.6321L176.678 36.8564L176.741 39.2325C176.776 40.5545 176.732 41.4837 176.641 41.327C175.917 40.0765 175.864 32.7953 176.575 32.1816C178.381 30.621 176.159 27.3981 173.925 28.3382ZM191.323 28.5584C190.391 29.0548 190.148 29.9032 190.208 32.4506C190.243 33.9592 190.19 34.5452 190.012 34.6095C189.829 34.6755 189.762 34.2084 189.748 32.7477C189.726 30.5692 189.534 29.4918 189.281 30.1288C189.038 30.7388 189.331 46.2026 189.633 48.6995C189.965 51.4477 190.219 51.9238 191.462 52.1227C193.132 52.3899 193.164 52.2641 193.046 45.8828C192.934 39.8438 193.038 39.4615 193.88 42.8176C196.208 52.0972 196.189 52.0446 197.255 51.9621L198.086 51.8979L198.5 50.4356C199.207 47.9372 199.829 44.833 199.797 43.9593C199.766 43.1327 200.78 38.3463 201.455 36.1252C201.791 35.0198 202.196 34.7344 202.196 35.6029C202.196 35.8327 202.283 36.1617 202.39 36.3341C202.496 36.5064 202.77 37.5875 202.998 38.7365C203.226 39.8856 203.552 41.5307 203.722 42.3925C204.2 44.8102 204.643 48.2729 204.643 49.5882C204.643 51.1091 204.837 51.4711 205.992 52.0953C208.3 53.3438 209.514 50.7493 208.675 46.3618C207.731 41.4252 207.328 39.2175 206.885 36.5566C206.196 32.4089 205.55 30.4714 204.399 29.0945C203.401 27.901 200.458 28.6215 200.247 30.1108C199.319 36.6639 197.041 45.9346 196.725 44.4442C195.887 40.4975 194.466 32.0345 194.465 30.986C194.465 30.4094 193.614 28.826 193.157 28.5496C192.632 28.2329 191.927 28.2363 191.323 28.5584ZM118.999 29.2017C118.92 29.5052 118.874 31.8686 118.895 34.4539C118.955 41.6003 118.592 40.1204 117.992 30.7768C117.89 29.1833 117.91 29.0648 118.333 28.7487C118.909 28.3175 119.18 28.5014 118.999 29.2017ZM193.649 31.268C193.746 31.4692 193.932 32.2917 194.063 33.096C194.194 33.9003 194.47 35.4264 194.676 36.4872C195.23 39.3315 194.858 39.84 194.214 37.1177C192.959 31.8089 192.722 29.3485 193.649 31.268ZM110.05 31.7903C110.958 33.0517 111.715 37.477 111.74 41.6613C111.776 47.7283 110.28 50.5745 107.78 49.1944C106.415 48.4411 105.893 46.9058 107.085 47.149C107.654 47.2649 107.653 47.2764 107.271 44.795C106.744 41.3761 106.997 36.9978 107.862 34.5583C108.757 32.0328 109.526 31.0608 110.05 31.7903ZM153.715 32.6618C155.133 32.9865 155.359 33.1319 154.706 33.2978C154.111 33.4488 152.34 32.9675 152.235 32.6259C152.137 32.308 152.173 32.309 153.715 32.6618ZM58.2104 34.6106C58.7651 38.4589 58.7747 38.414 57.4003 38.42C56.3951 38.4242 56.3606 38.1996 56.9779 35.6752C57.7327 32.59 57.8984 32.4467 58.2104 34.6106ZM142.808 36.074C143.043 38.3212 143.002 38.4146 141.777 38.42C140.794 38.4244 140.785 38.3764 141.354 35.9002C142.152 32.4289 142.431 32.4623 142.808 36.074ZM108.556 34.1579C108.565 34.4012 108.612 34.4507 108.674 34.2842C108.731 34.1334 108.723 33.9531 108.659 33.8838C108.594 33.8144 108.547 33.9377 108.556 34.1579ZM73.5968 35.7871C77.8644 38.9701 83.4165 46.3559 82.5932 47.7548C81.8481 49.021 77.0851 48.9028 74.0344 47.5421C73.2051 47.1724 73.2662 47.3719 72.534 42.6392C72.2081 40.5344 71.7689 37.9099 71.5579 36.8066C71.0566 34.1879 71.2937 34.0693 73.5968 35.7871ZM67.046 38.2143C67.046 38.3674 67.1047 38.4301 67.1765 38.3536C67.2482 38.2769 67.2482 38.1516 67.1765 38.0749C67.1047 37.9985 67.046 38.0611 67.046 38.2143ZM55.8347 44.9165C55.655 45.654 55.4661 46.5864 55.4149 46.9885C55.1538 49.039 55.1097 49.9133 55.2677 49.9133C55.3638 49.9133 55.499 49.3348 55.5681 48.6276C55.6374 47.9205 55.8339 46.6056 56.0048 45.7058C56.3925 43.6631 56.2739 43.1128 55.8347 44.9165ZM140.198 45.2778C139.918 46.6188 139.509 50.6743 139.752 49.7044C139.93 48.9924 140.67 43.8181 140.604 43.7477C140.565 43.7057 140.382 44.3941 140.198 45.2778ZM126.254 52.2984L123.905 52.5378L127.872 52.5418C130.559 52.5447 131.817 52.4751 131.771 52.3264C131.676 52.0226 129.088 52.0095 126.254 52.2984ZM122.633 52.7336C122.633 52.791 122.677 52.838 122.731 52.838C122.784 52.838 122.828 52.791 122.828 52.7336C122.828 52.6761 122.784 52.6291 122.731 52.6291C122.677 52.6291 122.633 52.6761 122.633 52.7336Z" fill="#D1C12B"/>
</g>
<path fill-rule="evenodd" clip-rule="evenodd" d="M10.4682 3.21296C6.3092 4.14679 5.89778 6.91757 9.19599 11.7802C9.57277 12.3357 9.96911 12.8717 10.0768 12.9712C10.3768 13.2486 11.7095 14.2944 13.0127 15.2753C14.1876 16.1596 18.1895 18.3619 18.6436 18.3742C18.7761 18.3778 19.3249 18.612 19.8632 18.8946C20.4014 19.1773 20.9606 19.4094 21.1058 19.4104C21.2511 19.4115 21.6474 19.542 21.9866 19.7008C22.3258 19.8594 23.2023 20.1892 23.9341 20.4339C27.4282 21.6013 26.8127 23.8216 23.2283 22.9801C22.777 22.874 21.6149 22.6312 20.6461 22.4403C19.6772 22.2493 18.7084 22.0097 18.4931 21.9075C16.0623 20.7537 11.1533 19.443 11.1533 19.9478C11.1533 20.7009 13.6545 24.6487 14.7999 25.7032C16.1422 26.9392 19.7064 29.2311 20.2861 29.2311C20.4245 29.2311 20.9144 29.4085 21.3748 29.6253C22.7584 30.2769 24.1275 30.6956 24.8705 30.6945C27.3174 30.691 28.6104 31.5306 27.9113 32.6696C27.5173 33.3113 23.0774 33.4701 21.2199 32.9088C18.9002 32.2077 17.6651 32.3075 18.1691 33.1553C18.3684 33.4902 22.7231 36.5378 23.0069 36.5409C23.1212 36.5419 23.6057 36.749 24.0834 37.0005C25.964 37.9912 33.0832 38.4625 36.3043 37.8096C40.0507 37.0502 40.2825 36.9951 40.6823 36.7667C40.8976 36.6437 41.2981 36.543 41.5719 36.543C44.1375 36.543 49.2374 33.5483 52.2146 30.2934C54.7769 27.4921 54.8742 27.0242 53.2387 25.3663C52.8985 25.0216 52.4747 24.4105 52.2966 24.0083C51.8698 23.0438 46.4894 17.3065 44.6227 15.8253C42.7572 14.345 39.5003 11.9951 38.5787 11.4643C38.189 11.2397 37.3417 10.7277 36.6958 10.3262C36.0498 9.92442 35.037 9.35493 34.4449 9.06058C33.8528 8.76601 33.1922 8.43572 32.9769 8.32667C32.2713 7.96881 29.2849 6.85573 27.9859 6.46653C27.2861 6.25679 26.4934 5.99001 26.2243 5.87364C25.9552 5.75728 25.2506 5.52205 24.6585 5.35074C21.8551 4.54017 21.1906 4.34275 20.6322 4.15494C20.3016 4.0438 19.7894 3.95292 19.4938 3.95292C19.1985 3.95292 18.7643 3.84032 18.5291 3.70285C17.4447 3.06818 12.4613 2.76547 10.4682 3.21296ZM60.3307 27.5101C59.3268 28.511 57.9191 32.1068 57.1387 35.6633C56.7132 37.6024 56.6189 37.8251 56.1742 37.9387C53.2083 38.6964 52.2749 41.6532 54.5906 42.9545C55.0672 43.2223 55.4872 43.4734 55.5238 43.5125C55.5604 43.5517 55.449 44.2792 55.276 45.1294C54.1555 50.6394 54.4737 52.6291 56.4756 52.6291C57.6631 52.6291 58.216 51.8735 58.4912 49.8746C59.1573 45.0392 59.7153 42.8136 60.1623 43.2097C60.3299 43.3583 60.4712 43.3593 60.6084 43.2129C60.7188 43.0951 61.4084 43.0267 62.1415 43.0612L63.4743 43.1237L63.9951 45.3172C65.3296 50.9365 66.2152 52.838 67.499 52.838C68.5058 52.838 68.8382 51.7935 68.5027 49.6837C68.3857 48.9483 68.203 47.7824 68.0966 47.093C67.9901 46.4036 67.7609 45.2019 67.5871 44.4225C67.2804 43.0474 67.2827 42.9916 67.6662 42.5423C68.9779 41.0043 68.68 39.1583 66.9885 38.3442C66.0878 37.9107 65.976 37.4898 65.9344 34.3724C65.9218 33.4407 65.8694 32.8662 65.8175 33.096C65.5047 34.4838 65.2802 33.8859 65.0086 30.9423C64.8275 28.9806 64.3805 27.9776 63.687 27.9776C63.5525 27.9776 63.1809 27.7426 62.861 27.4554C62.0576 26.7338 61.0883 26.7547 60.3307 27.5101ZM144.987 27.2974C143.976 27.9668 143.056 30.1326 141.823 34.7497L140.991 37.8658L140.118 38.1376C137.408 38.9808 136.941 43.2281 139.558 43.2281C140.048 43.2281 140.046 43.6409 139.548 45.944C139.337 46.9206 139.106 48.5359 139.035 49.5335L138.907 51.3472L139.507 51.9882C141.041 53.625 142.479 52.59 142.973 49.4955C143.864 43.9033 144.125 42.859 144.542 43.2281C144.721 43.3867 144.84 43.3898 144.927 43.2384C145.082 42.9712 147.704 42.9436 147.857 43.2077C147.917 43.3111 148.27 44.6819 148.641 46.2538C149.917 51.6616 151.587 54.1481 152.751 52.3736C153.23 51.6443 152.873 48.2487 151.872 44.0038C151.651 43.0698 151.664 43.0104 152.252 42.2494C153.322 40.8639 152.864 38.9281 151.311 38.2774C150.516 37.9439 150.316 37.2107 150.316 34.6321C150.316 34.0559 150.232 33.8271 150.022 33.8271C149.861 33.8271 149.729 33.7369 149.729 33.6264C149.729 30.8218 149.095 28.3311 148.315 28.0679C148.07 27.9852 147.597 27.696 147.264 27.4253C146.554 26.8487 145.734 26.8027 144.987 27.2974ZM100.539 27.2782C100.465 27.3566 100.405 28.1805 100.405 29.1093C100.405 33.7054 99.6579 38.5684 98.2915 42.8726C97.6111 45.0162 97.4714 44.8415 96.9038 41.139C96.6662 39.5879 96.3479 37.7077 96.197 36.9608C94.7843 29.9759 94.4644 29.0544 93.1333 28.1343C90.8519 26.5575 90.1206 28.7888 91.1948 34.0486C92.1396 38.6749 92.9356 43.9301 93.0795 46.4899C93.1846 48.3609 93.2867 48.894 93.6549 49.4955C93.9013 49.8976 94.1658 50.4617 94.2427 50.7489C95.5854 55.7603 102.704 47.357 104.596 38.5276C106.08 31.6012 105.495 27.7213 102.923 27.4401L101.641 27.2999L101.505 30.5489C101.311 35.1936 100.788 38.3283 99.5815 42.0791C98.9519 44.0368 98.0584 45.8207 97.8298 45.5767C97.6982 45.4363 97.7607 45.1 98.019 44.5587C99.9658 40.4801 102.14 25.5691 100.539 27.2782ZM169.203 27.6868C167.373 27.8417 164.189 27.9939 162.128 28.0253C160.066 28.0564 158.481 28.1513 158.605 28.2357C158.729 28.3201 159.287 28.3905 159.846 28.3923C160.405 28.394 160.925 28.5047 161.003 28.6384C161.109 28.8212 160.415 28.8478 158.199 28.7454C153.579 28.5319 152.942 29.6019 155.752 32.8605C156.412 33.6264 157.388 33.8917 160.004 34.0179L162.549 34.1405L162.522 34.8717C162.212 43.343 162.216 49.5347 162.533 50.4199C163.358 52.726 165.482 52.7507 165.885 50.4589C166.058 49.4723 166.362 49.49 166.379 50.4878C166.39 51.1162 166.426 51.1885 166.561 50.8534C166.654 50.6236 166.736 46.6516 166.743 42.0269C166.751 37.4022 166.813 33.6182 166.882 33.6182C167.394 33.6182 172.058 32.7153 172.5 32.5307C172.847 32.3857 173.168 32.0157 173.354 31.5479C173.517 31.1355 173.833 30.4073 174.055 29.9299C174.444 29.0951 174.446 29.0404 174.116 28.5029C173.928 28.1955 173.821 27.8105 173.88 27.6474C174.008 27.2922 173.849 27.2937 169.203 27.6868ZM71.9268 28.0583C71.6036 28.2085 71.2186 28.4868 71.0708 28.6769C70.9233 28.8668 70.6907 29.0222 70.5543 29.0222C70.4181 29.0222 70.1096 29.1925 69.8689 29.4003L69.4312 29.7787L69.7777 31.4894C69.9863 32.5204 70.2212 33.2004 70.3684 33.2004C70.6935 33.2004 70.7647 33.4177 71.6371 37.0653C72.0493 38.7888 72.6574 41.3214 72.9886 42.6931C73.695 45.6206 73.6586 45.3172 73.3037 45.3172C72.9021 45.3172 72.7451 44.8936 72.2207 42.3925C71.9679 41.186 71.6913 40.1131 71.6062 40.008C71.4136 39.77 71.5776 41.0367 71.9636 42.7658C72.3174 44.3512 72.2268 44.7622 71.5813 44.5002C68.4138 43.2148 68.2173 47.4318 71.3715 49.0049C72.9445 49.7896 73.2671 50.0363 73.5008 50.6334C74.0989 52.1611 75.7969 52.6592 77.1591 51.7064C77.5665 51.4214 77.7144 51.4222 78.5868 51.7143C88.8165 55.1373 92.6966 47.454 85.4138 38.1957C79.3554 30.494 74.5137 26.8548 71.9268 28.0583ZM112.665 28.2837C111.809 28.6094 110.881 29.4728 110.458 30.3369C110.301 30.6578 109.976 31.0004 109.735 31.0981C107.074 32.178 105.898 43.8929 107.977 48.6122C110.417 54.15 116.827 53.2266 118.817 47.0502C120.306 42.4334 118.956 30.5057 116.853 29.6943C116.688 29.6306 116.236 29.2182 115.849 28.778C115.055 27.8755 114.12 27.7301 112.665 28.2837ZM122.374 28.1937C121.575 28.5363 121.473 29.1559 121.713 32.1937C122.289 39.4991 122.549 42.3795 122.724 43.4232C122.828 44.0475 122.914 46.1525 122.914 48.1006C122.914 52.5662 122.973 52.6375 126.046 51.8952C128.354 51.3376 131.978 50.9449 134.445 50.985C137.502 51.0347 138.05 50.6213 137.312 48.8236C137.157 48.4463 136.984 47.9015 136.928 47.6132C136.687 46.3693 133.19 45.9281 129.373 46.6599C127.459 47.0268 127.624 47.5027 127.194 40.3752C126.987 36.9462 126.697 33.2944 126.551 32.2603L126.284 30.3801L126.263 31.8026C126.24 33.3197 125.951 33.5434 125.748 32.2008C125.613 31.3117 125.271 29.5023 125.139 28.9867C124.98 28.3633 123.181 27.8475 122.374 28.1937ZM177.925 28.3382C174.798 29.6539 174.261 46.0545 177.311 47.0875C177.537 47.1642 178.066 47.768 178.487 48.429C182.496 54.7308 189.071 52.6262 191.021 44.4166C192.263 39.1897 191.88 29.9163 190.374 28.7289L189.819 28.291L189.388 28.8655C189.123 29.219 188.767 29.44 188.463 29.44C187.202 29.44 187.114 29.8029 187.103 35.0365C187.08 45.6601 186.036 48.4664 182.916 46.2845C182.278 45.8383 181.133 41.6024 180.849 38.6321L180.678 36.8564L180.741 39.2325C180.776 40.5545 180.732 41.4837 180.641 41.327C179.917 40.0765 179.864 32.7953 180.575 32.1816C182.381 30.621 180.159 27.3981 177.925 28.3382ZM195.323 28.5584C194.391 29.0548 194.148 29.9032 194.208 32.4506C194.243 33.9592 194.19 34.5452 194.012 34.6095C193.829 34.6755 193.762 34.2084 193.748 32.7477C193.726 30.5692 193.534 29.4918 193.281 30.1288C193.038 30.7388 193.331 46.2026 193.633 48.6995C193.965 51.4477 194.219 51.9238 195.462 52.1227C197.132 52.3899 197.164 52.2641 197.046 45.8828C196.934 39.8438 197.038 39.4615 197.88 42.8176C200.208 52.0972 200.189 52.0446 201.255 51.9621L202.086 51.8979L202.5 50.4356C203.207 47.9372 203.829 44.833 203.797 43.9593C203.766 43.1327 204.78 38.3463 205.455 36.1252C205.791 35.0198 206.196 34.7344 206.196 35.6029C206.196 35.8327 206.283 36.1617 206.39 36.3341C206.496 36.5064 206.77 37.5875 206.998 38.7365C207.226 39.8856 207.552 41.5307 207.722 42.3925C208.2 44.8102 208.643 48.2729 208.643 49.5882C208.643 51.1091 208.837 51.4711 209.992 52.0953C212.3 53.3438 213.514 50.7493 212.675 46.3618C211.731 41.4252 211.328 39.2175 210.885 36.5566C210.196 32.4089 209.55 30.4714 208.399 29.0945C207.401 27.901 204.458 28.6215 204.247 30.1108C203.319 36.6639 201.041 45.9346 200.725 44.4442C199.887 40.4975 198.466 32.0345 198.465 30.986C198.465 30.4094 197.614 28.826 197.157 28.5496C196.632 28.2329 195.927 28.2363 195.323 28.5584ZM122.999 29.2017C122.92 29.5052 122.874 31.8686 122.895 34.4539C122.955 41.6003 122.592 40.1204 121.992 30.7768C121.89 29.1833 121.91 29.0648 122.333 28.7487C122.909 28.3175 123.18 28.5014 122.999 29.2017ZM197.649 31.268C197.746 31.4692 197.932 32.2917 198.063 33.096C198.194 33.9003 198.47 35.4264 198.676 36.4872C199.23 39.3315 198.858 39.84 198.214 37.1177C196.959 31.8089 196.722 29.3485 197.649 31.268ZM114.05 31.7903C114.958 33.0517 115.715 37.477 115.74 41.6613C115.776 47.7283 114.28 50.5745 111.78 49.1944C110.415 48.4411 109.893 46.9058 111.085 47.149C111.654 47.2649 111.653 47.2764 111.271 44.795C110.744 41.3761 110.997 36.9978 111.862 34.5583C112.757 32.0328 113.526 31.0608 114.05 31.7903ZM157.715 32.6618C159.133 32.9865 159.359 33.1319 158.706 33.2978C158.111 33.4488 156.34 32.9675 156.235 32.6259C156.137 32.308 156.173 32.309 157.715 32.6618ZM62.2104 34.6106C62.7651 38.4589 62.7747 38.414 61.4003 38.42C60.3951 38.4242 60.3606 38.1996 60.9779 35.6752C61.7327 32.59 61.8984 32.4467 62.2104 34.6106ZM146.808 36.074C147.043 38.3212 147.002 38.4146 145.777 38.42C144.794 38.4244 144.785 38.3764 145.354 35.9002C146.152 32.4289 146.431 32.4623 146.808 36.074ZM112.556 34.1579C112.565 34.4012 112.612 34.4507 112.674 34.2842C112.731 34.1334 112.723 33.9531 112.659 33.8838C112.594 33.8144 112.547 33.9377 112.556 34.1579ZM77.5968 35.7871C81.8644 38.9701 87.4165 46.3559 86.5932 47.7548C85.8481 49.021 81.0851 48.9028 78.0344 47.5421C77.2051 47.1724 77.2662 47.3719 76.534 42.6392C76.2081 40.5344 75.7689 37.9099 75.5579 36.8066C75.0566 34.1879 75.2937 34.0693 77.5968 35.7871ZM71.046 38.2143C71.046 38.3674 71.1047 38.4301 71.1765 38.3536C71.2482 38.2769 71.2482 38.1516 71.1765 38.0749C71.1047 37.9985 71.046 38.0611 71.046 38.2143ZM59.8347 44.9165C59.655 45.654 59.4661 46.5864 59.4149 46.9885C59.1538 49.039 59.1097 49.9133 59.2677 49.9133C59.3638 49.9133 59.499 49.3348 59.5681 48.6276C59.6374 47.9205 59.8339 46.6056 60.0048 45.7058C60.3925 43.6631 60.2739 43.1128 59.8347 44.9165ZM144.198 45.2778C143.918 46.6188 143.509 50.6743 143.752 49.7044C143.93 48.9924 144.67 43.8181 144.604 43.7477C144.565 43.7057 144.382 44.3941 144.198 45.2778ZM130.254 52.2984L127.905 52.5378L131.872 52.5418C134.559 52.5447 135.817 52.4751 135.771 52.3264C135.676 52.0226 133.088 52.0095 130.254 52.2984ZM126.633 52.7336C126.633 52.791 126.677 52.838 126.731 52.838C126.784 52.838 126.828 52.791 126.828 52.7336C126.828 52.6761 126.784 52.6291 126.731 52.6291C126.677 52.6291 126.633 52.6761 126.633 52.7336Z" fill="#A332CA"/>
<path fill-rule="evenodd" clip-rule="evenodd" d="M8.46822 3.21296C4.3092 4.14679 3.89778 6.91757 7.19599 11.7802C7.57277 12.3357 7.96911 12.8717 8.07676 12.9712C8.37682 13.2486 9.70953 14.2944 11.0127 15.2753C12.1876 16.1596 16.1895 18.3619 16.6436 18.3742C16.7761 18.3778 17.3249 18.612 17.8632 18.8946C18.4014 19.1773 18.9606 19.4094 19.1058 19.4104C19.2511 19.4115 19.6474 19.542 19.9866 19.7008C20.3258 19.8594 21.2023 20.1892 21.9341 20.4339C25.4282 21.6013 24.8127 23.8216 21.2283 22.9801C20.777 22.874 19.6149 22.6312 18.6461 22.4403C17.6772 22.2493 16.7084 22.0097 16.4931 21.9075C14.0623 20.7537 9.15327 19.443 9.15327 19.9478C9.15327 20.7009 11.6545 24.6487 12.7999 25.7032C14.1422 26.9392 17.7064 29.2311 18.2861 29.2311C18.4245 29.2311 18.9144 29.4085 19.3748 29.6253C20.7584 30.2769 22.1275 30.6956 22.8705 30.6945C25.3174 30.691 26.6104 31.5306 25.9113 32.6696C25.5173 33.3113 21.0774 33.4701 19.2199 32.9088C16.9002 32.2077 15.6651 32.3075 16.1691 33.1553C16.3684 33.4902 20.7231 36.5378 21.0069 36.5409C21.1212 36.5419 21.6057 36.749 22.0834 37.0005C23.964 37.9912 31.0832 38.4625 34.3043 37.8096C38.0507 37.0502 38.2825 36.9951 38.6823 36.7667C38.8976 36.6437 39.2981 36.543 39.5719 36.543C42.1375 36.543 47.2374 33.5483 50.2146 30.2934C52.7769 27.4921 52.8742 27.0242 51.2387 25.3663C50.8985 25.0216 50.4747 24.4105 50.2966 24.0083C49.8698 23.0438 44.4894 17.3065 42.6227 15.8253C40.7572 14.345 37.5003 11.9951 36.5787 11.4643C36.189 11.2397 35.3417 10.7277 34.6958 10.3262C34.0498 9.92442 33.037 9.35493 32.4449 9.06058C31.8528 8.76601 31.1922 8.43572 30.9769 8.32667C30.2713 7.96881 27.2849 6.85573 25.9859 6.46653C25.2861 6.25679 24.4934 5.99001 24.2243 5.87364C23.9552 5.75728 23.2506 5.52205 22.6585 5.35074C19.8551 4.54017 19.1906 4.34275 18.6322 4.15494C18.3016 4.0438 17.7894 3.95292 17.4938 3.95292C17.1985 3.95292 16.7643 3.84032 16.5291 3.70285C15.4447 3.06818 10.4613 2.76547 8.46822 3.21296ZM58.3307 27.5101C57.3268 28.511 55.9191 32.1068 55.1387 35.6633C54.7132 37.6024 54.6189 37.8251 54.1742 37.9387C51.2083 38.6964 50.2749 41.6532 52.5906 42.9545C53.0672 43.2223 53.4872 43.4734 53.5238 43.5125C53.5604 43.5517 53.449 44.2792 53.276 45.1294C52.1555 50.6394 52.4737 52.6291 54.4756 52.6291C55.6631 52.6291 56.216 51.8735 56.4912 49.8746C57.1573 45.0392 57.7153 42.8136 58.1623 43.2097C58.3299 43.3583 58.4712 43.3593 58.6084 43.2129C58.7188 43.0951 59.4084 43.0267 60.1415 43.0612L61.4743 43.1237L61.9951 45.3172C63.3296 50.9365 64.2152 52.838 65.499 52.838C66.5058 52.838 66.8382 51.7935 66.5027 49.6837C66.3857 48.9483 66.203 47.7824 66.0966 47.093C65.9901 46.4036 65.7609 45.2019 65.5871 44.4225C65.2804 43.0474 65.2827 42.9916 65.6662 42.5423C66.9779 41.0043 66.68 39.1583 64.9885 38.3442C64.0878 37.9107 63.976 37.4898 63.9344 34.3724C63.9218 33.4407 63.8694 32.8662 63.8175 33.096C63.5047 34.4838 63.2802 33.8859 63.0086 30.9423C62.8275 28.9806 62.3805 27.9776 61.687 27.9776C61.5525 27.9776 61.1809 27.7426 60.861 27.4554C60.0576 26.7338 59.0883 26.7547 58.3307 27.5101ZM142.987 27.2974C141.976 27.9668 141.056 30.1326 139.823 34.7497L138.991 37.8658L138.118 38.1376C135.408 38.9808 134.941 43.2281 137.558 43.2281C138.048 43.2281 138.046 43.6409 137.548 45.944C137.337 46.9206 137.106 48.5359 137.035 49.5335L136.907 51.3472L137.507 51.9882C139.041 53.625 140.479 52.59 140.973 49.4955C141.864 43.9033 142.125 42.859 142.542 43.2281C142.721 43.3867 142.84 43.3898 142.927 43.2384C143.082 42.9712 145.704 42.9436 145.857 43.2077C145.917 43.3111 146.27 44.6819 146.641 46.2538C147.917 51.6616 149.587 54.1481 150.751 52.3736C151.23 51.6443 150.873 48.2487 149.872 44.0038C149.651 43.0698 149.664 43.0104 150.252 42.2494C151.322 40.8639 150.864 38.9281 149.311 38.2774C148.516 37.9439 148.316 37.2107 148.316 34.6321C148.316 34.0559 148.232 33.8271 148.022 33.8271C147.861 33.8271 147.729 33.7369 147.729 33.6264C147.729 30.8218 147.095 28.3311 146.315 28.0679C146.07 27.9852 145.597 27.696 145.264 27.4253C144.554 26.8487 143.734 26.8027 142.987 27.2974ZM98.5387 27.2782C98.4653 27.3566 98.4052 28.1805 98.405 29.1093C98.4046 33.7054 97.6579 38.5684 96.2915 42.8726C95.6111 45.0162 95.4714 44.8415 94.9038 41.139C94.6662 39.5879 94.3479 37.7077 94.197 36.9608C92.7843 29.9759 92.4644 29.0544 91.1333 28.1343C88.8519 26.5575 88.1206 28.7888 89.1948 34.0486C90.1396 38.6749 90.9356 43.9301 91.0795 46.4899C91.1846 48.3609 91.2867 48.894 91.6549 49.4955C91.9013 49.8976 92.1658 50.4617 92.2427 50.7489C93.5854 55.7603 100.704 47.357 102.596 38.5276C104.08 31.6012 103.495 27.7213 100.923 27.4401L99.6408 27.2999L99.505 30.5489C99.311 35.1936 98.788 38.3283 97.5815 42.0791C96.9519 44.0368 96.0584 45.8207 95.8298 45.5767C95.6982 45.4363 95.7607 45.1 96.019 44.5587C97.9658 40.4801 100.14 25.5691 98.5387 27.2782ZM167.203 27.6868C165.373 27.8417 162.189 27.9939 160.128 28.0253C158.066 28.0564 156.481 28.1513 156.605 28.2357C156.729 28.3201 157.287 28.3905 157.846 28.3923C158.405 28.394 158.925 28.5047 159.003 28.6384C159.109 28.8212 158.415 28.8478 156.199 28.7454C151.579 28.5319 150.942 29.6019 153.752 32.8605C154.412 33.6264 155.388 33.8917 158.004 34.0179L160.549 34.1405L160.522 34.8717C160.212 43.343 160.216 49.5347 160.533 50.4199C161.358 52.726 163.482 52.7507 163.885 50.4589C164.058 49.4723 164.362 49.49 164.379 50.4878C164.39 51.1162 164.426 51.1885 164.561 50.8534C164.654 50.6236 164.736 46.6516 164.743 42.0269C164.751 37.4022 164.813 33.6182 164.882 33.6182C165.394 33.6182 170.058 32.7153 170.5 32.5307C170.847 32.3857 171.168 32.0157 171.354 31.5479C171.517 31.1355 171.833 30.4073 172.055 29.9299C172.444 29.0951 172.446 29.0404 172.116 28.5029C171.928 28.1955 171.821 27.8105 171.88 27.6474C172.008 27.2922 171.849 27.2937 167.203 27.6868ZM69.9268 28.0583C69.6036 28.2085 69.2186 28.4868 69.0708 28.6769C68.9233 28.8668 68.6907 29.0222 68.5543 29.0222C68.4181 29.0222 68.1096 29.1925 67.8689 29.4003L67.4312 29.7787L67.7777 31.4894C67.9863 32.5204 68.2212 33.2004 68.3684 33.2004C68.6935 33.2004 68.7647 33.4177 69.6371 37.0653C70.0493 38.7888 70.6574 41.3214 70.9886 42.6931C71.695 45.6206 71.6586 45.3172 71.3037 45.3172C70.9021 45.3172 70.7451 44.8936 70.2207 42.3925C69.9679 41.186 69.6913 40.1131 69.6062 40.008C69.4136 39.77 69.5776 41.0367 69.9636 42.7658C70.3174 44.3512 70.2268 44.7622 69.5813 44.5002C66.4138 43.2148 66.2173 47.4318 69.3715 49.0049C70.9445 49.7896 71.2671 50.0363 71.5008 50.6334C72.0989 52.1611 73.7969 52.6592 75.1591 51.7064C75.5665 51.4214 75.7144 51.4222 76.5868 51.7143C86.8165 55.1373 90.6966 47.454 83.4138 38.1957C77.3554 30.494 72.5137 26.8548 69.9268 28.0583ZM110.665 28.2837C109.809 28.6094 108.881 29.4728 108.458 30.3369C108.301 30.6578 107.976 31.0004 107.735 31.0981C105.074 32.178 103.898 43.8929 105.977 48.6122C108.417 54.15 114.827 53.2266 116.817 47.0502C118.306 42.4334 116.956 30.5057 114.853 29.6943C114.688 29.6306 114.236 29.2182 113.849 28.778C113.055 27.8755 112.12 27.7301 110.665 28.2837ZM120.374 28.1937C119.575 28.5363 119.473 29.1559 119.713 32.1937C120.289 39.4991 120.549 42.3795 120.724 43.4232C120.828 44.0475 120.914 46.1525 120.914 48.1006C120.914 52.5662 120.973 52.6375 124.046 51.8952C126.354 51.3376 129.978 50.9449 132.445 50.985C135.502 51.0347 136.05 50.6213 135.312 48.8236C135.157 48.4463 134.984 47.9015 134.928 47.6132C134.687 46.3693 131.19 45.9281 127.373 46.6599C125.459 47.0268 125.624 47.5027 125.194 40.3752C124.987 36.9462 124.697 33.2944 124.551 32.2603L124.284 30.3801L124.263 31.8026C124.24 33.3197 123.951 33.5434 123.748 32.2008C123.613 31.3117 123.271 29.5023 123.139 28.9867C122.98 28.3633 121.181 27.8475 120.374 28.1937ZM175.925 28.3382C172.798 29.6539 172.261 46.0545 175.311 47.0875C175.537 47.1642 176.066 47.768 176.487 48.429C180.496 54.7308 187.071 52.6262 189.021 44.4166C190.263 39.1897 189.88 29.9163 188.374 28.7289L187.819 28.291L187.388 28.8655C187.123 29.219 186.767 29.44 186.463 29.44C185.202 29.44 185.114 29.8029 185.103 35.0365C185.08 45.6601 184.036 48.4664 180.916 46.2845C180.278 45.8383 179.133 41.6024 178.849 38.6321L178.678 36.8564L178.741 39.2325C178.776 40.5545 178.732 41.4837 178.641 41.327C177.917 40.0765 177.864 32.7953 178.575 32.1816C180.381 30.621 178.159 27.3981 175.925 28.3382ZM193.323 28.5584C192.391 29.0548 192.148 29.9032 192.208 32.4506C192.243 33.9592 192.19 34.5452 192.012 34.6095C191.829 34.6755 191.762 34.2084 191.748 32.7477C191.726 30.5692 191.534 29.4918 191.281 30.1288C191.038 30.7388 191.331 46.2026 191.633 48.6995C191.965 51.4477 192.219 51.9238 193.462 52.1227C195.132 52.3899 195.164 52.2641 195.046 45.8828C194.934 39.8438 195.038 39.4615 195.88 42.8176C198.208 52.0972 198.189 52.0446 199.255 51.9621L200.086 51.8979L200.5 50.4356C201.207 47.9372 201.829 44.833 201.797 43.9593C201.766 43.1327 202.78 38.3463 203.455 36.1252C203.791 35.0198 204.196 34.7344 204.196 35.6029C204.196 35.8327 204.283 36.1617 204.39 36.3341C204.496 36.5064 204.77 37.5875 204.998 38.7365C205.226 39.8856 205.552 41.5307 205.722 42.3925C206.2 44.8102 206.643 48.2729 206.643 49.5882C206.643 51.1091 206.837 51.4711 207.992 52.0953C210.3 53.3438 211.514 50.7493 210.675 46.3618C209.731 41.4252 209.328 39.2175 208.885 36.5566C208.196 32.4089 207.55 30.4714 206.399 29.0945C205.401 27.901 202.458 28.6215 202.247 30.1108C201.319 36.6639 199.041 45.9346 198.725 44.4442C197.887 40.4975 196.466 32.0345 196.465 30.986C196.465 30.4094 195.614 28.826 195.157 28.5496C194.632 28.2329 193.927 28.2363 193.323 28.5584ZM120.999 29.2017C120.92 29.5052 120.874 31.8686 120.895 34.4539C120.955 41.6003 120.592 40.1204 119.992 30.7768C119.89 29.1833 119.91 29.0648 120.333 28.7487C120.909 28.3175 121.18 28.5014 120.999 29.2017ZM195.649 31.268C195.746 31.4692 195.932 32.2917 196.063 33.096C196.194 33.9003 196.47 35.4264 196.676 36.4872C197.23 39.3315 196.858 39.84 196.214 37.1177C194.959 31.8089 194.722 29.3485 195.649 31.268ZM112.05 31.7903C112.958 33.0517 113.715 37.477 113.74 41.6613C113.776 47.7283 112.28 50.5745 109.78 49.1944C108.415 48.4411 107.893 46.9058 109.085 47.149C109.654 47.2649 109.653 47.2764 109.271 44.795C108.744 41.3761 108.997 36.9978 109.862 34.5583C110.757 32.0328 111.526 31.0608 112.05 31.7903ZM155.715 32.6618C157.133 32.9865 157.359 33.1319 156.706 33.2978C156.111 33.4488 154.34 32.9675 154.235 32.6259C154.137 32.308 154.173 32.309 155.715 32.6618ZM60.2104 34.6106C60.7651 38.4589 60.7747 38.414 59.4003 38.42C58.3951 38.4242 58.3606 38.1996 58.9779 35.6752C59.7327 32.59 59.8984 32.4467 60.2104 34.6106ZM144.808 36.074C145.043 38.3212 145.002 38.4146 143.777 38.42C142.794 38.4244 142.785 38.3764 143.354 35.9002C144.152 32.4289 144.431 32.4623 144.808 36.074ZM110.556 34.1579C110.565 34.4012 110.612 34.4507 110.674 34.2842C110.731 34.1334 110.723 33.9531 110.659 33.8838C110.594 33.8144 110.547 33.9377 110.556 34.1579ZM75.5968 35.7871C79.8644 38.9701 85.4165 46.3559 84.5932 47.7548C83.8481 49.021 79.0851 48.9028 76.0344 47.5421C75.2051 47.1724 75.2662 47.3719 74.534 42.6392C74.2081 40.5344 73.7689 37.9099 73.5579 36.8066C73.0566 34.1879 73.2937 34.0693 75.5968 35.7871ZM69.046 38.2143C69.046 38.3674 69.1047 38.4301 69.1765 38.3536C69.2482 38.2769 69.2482 38.1516 69.1765 38.0749C69.1047 37.9985 69.046 38.0611 69.046 38.2143ZM57.8347 44.9165C57.655 45.654 57.4661 46.5864 57.4149 46.9885C57.1538 49.039 57.1097 49.9133 57.2677 49.9133C57.3638 49.9133 57.499 49.3348 57.5681 48.6276C57.6374 47.9205 57.8339 46.6056 58.0048 45.7058C58.3925 43.6631 58.2739 43.1128 57.8347 44.9165ZM142.198 45.2778C141.918 46.6188 141.509 50.6743 141.752 49.7044C141.93 48.9924 142.67 43.8181 142.604 43.7477C142.565 43.7057 142.382 44.3941 142.198 45.2778ZM128.254 52.2984L125.905 52.5378L129.872 52.5418C132.559 52.5447 133.817 52.4751 133.771 52.3264C133.676 52.0226 131.088 52.0095 128.254 52.2984ZM124.633 52.7336C124.633 52.791 124.677 52.838 124.731 52.838C124.784 52.838 124.828 52.791 124.828 52.7336C124.828 52.6761 124.784 52.6291 124.731 52.6291C124.677 52.6291 124.633 52.6761 124.633 52.7336Z" fill="white"/>
<defs>
<filter id="filter0_d_59_801" x="5" y="3" width="213.941" height="63.9407" filterUnits="userSpaceOnUse" color-interpolation-filters="sRGB">
<feFlood flood-opacity="0" result="BackgroundImageFix"/>
<feColorMatrix in="SourceAlpha" type="matrix" values="0 0 0 0 0 0 0 0 0 0 0 0 0 0 0 0 0 0 127 0" result="hardAlpha"/>
<feOffset dx="4" dy="10"/>
<feGaussianBlur stdDeviation="2"/>
<feComposite in2="hardAlpha" operator="out"/>
<feColorMatrix type="matrix" values="0 0 0 0 0 0 0 0 0 0 0 0 0 0 0 0 0 0 0.37 0"/>
<feBlend mode="normal" in2="BackgroundImageFix" result="effect1_dropShadow_59_801"/>
<feBlend mode="normal" in="SourceGraphic" in2="effect1_dropShadow_59_801" result="shape"/>
</filter>
<filter id="filter1_f_59_801" x="0" y="0" width="211.941" height="55.9407" filterUnits="userSpaceOnUse" color-interpolation-filters="sRGB">
<feFlood flood-opacity="0" result="BackgroundImageFix"/>
<feBlend mode="normal" in="SourceGraphic" in2="BackgroundImageFix" result="shape"/>
<feGaussianBlur stdDeviation="1.5" result="effect1_foregroundBlur_59_801"/>
</filter>
</defs>
</svg>
